<?xml version="1.0" standalone="no"?>
<!DOCTYPE svg PUBLIC "-//W3C//DTD SVG 20010904//EN"
 "http://www.w3.org/TR/2001/REC-SVG-20010904/DTD/svg10.dtd">
<svg version="1.0" xmlns="http://www.w3.org/2000/svg"
 width="500.000000pt" height="500.000000pt" viewBox="0 0 500.000000 500.000000"
 preserveAspectRatio="xMidYMid meet">
<metadata>
Created by potrace 1.11, written by Peter Selinger 2001-2013
</metadata>
<g transform="translate(0.000000,500.000000) scale(0.100000,-0.100000)"
fill="#000000" stroke="none">
<path d="M2135 4984 c-239 -36 -509 -119 -710 -219 -71 -36 -119 -63 -105 -60
125 22 288 35 460 35 359 0 551 -37 1335 -257 369 -103 496 -134 650 -158 126
-19 345 -30 410 -20 l50 7 -60 54 c-358 325 -834 548 -1316 619 -137 19 -582
19 -714 -1z"/>
<path d="M2180 3930 c-96 -9 -174 -25 -280 -57 -340 -101 -563 -324 -642 -641
-29 -117 -31 -343 -4 -447 51 -196 206 -422 353 -515 l45 -29 -39 -10 c-74
-21 -199 -41 -310 -50 -337 -27 -660 70 -889 266 -138 117 -270 334 -317 521
-13 50 -26 95 -29 98 -6 5 -28 -108 -50 -251 -16 -108 -16 -506 0 -620 60
-417 187 -757 407 -1085 397 -592 1006 -977 1725 -1087 161 -24 529 -24 690 0
813 125 1496 610 1868 1327 374 719 374 1592 2 2307 -54 104 -157 273 -166
273 -2 0 -26 -14 -52 -30 -195 -120 -416 -173 -717 -173 -181 1 -303 17 -660
89 -586 118 -722 135 -935 114z m305 -209 c386 -64 641 -286 709 -613 38 -185
20 -310 -99 -663 -51 -154 -87 -271 -79 -260 8 11 61 90 117 175 104 158 223
319 361 490 l77 95 -3 68 c-2 40 1 67 7 67 70 -1 266 -93 329 -155 71 -68 99
-139 99 -244 1 -113 -22 -190 -123 -426 -99 -230 -124 -318 -118 -424 3 -42 8
-85 13 -95 8 -18 4 -19 -71 -13 -94 6 -221 45 -287 87 -58 36 -102 104 -118
178 -20 97 6 215 89 397 83 184 92 205 88 205 -5 0 -164 -214 -253 -340 -166
-235 -351 -569 -473 -855 -57 -133 -183 -511 -206 -615 -9 -41 -16 -118 -17
-170 -1 -124 20 -197 72 -249 l38 -38 -136 4 c-282 8 -435 36 -586 107 -213
101 -361 274 -421 496 -21 77 -24 280 -5 378 11 59 82 275 378 1147 271 800
293 877 293 1004 0 112 -35 220 -85 259 -14 11 -25 21 -25 23 0 8 370 -9 435
-20z"/>
</g>
</svg>
